<svg width="24" height="24" fill="none" xmlns="http://www.w3.org/2000/svg">
  <path d="M17.9667.01123H6.01427C2.70262.01123 0 2.71385 0 6.0255V17.997c0 3.2926 2.70262 5.9952 6.01427 5.9952H17.9857c3.3117 0 6.0143-2.7026 6.0143-6.0143V6.0255C23.981 2.71385 21.2784.01123 17.9667.01123ZM7.99366 19.4244H4.5678V9.52749h3.42586v9.89691ZM6.2617 8.00489c-.97066 0-1.75099-.78034-1.75099-1.751 0-.97065.78033-1.75099 1.75099-1.75099.97066 0 1.75099.78034 1.75099 1.75099-.01903.97066-.79937 1.751-1.75099 1.751ZM19.4322 19.4244H16.5583v-4.7962c0-1.161-.1523-2.6455-1.732-2.6455-1.6177 0-1.8842 1.2561-1.8842 2.5694v4.8723h-2.8549V9.52749h2.6646v1.33231h.0761c.4187-.7613 1.3894-1.35135 2.912-1.35135 3.1404 0 3.6923 1.80805 3.6923 4.49165v5.4243Z" fill="#fff"/>
</svg>
