<svg width="24" height="24" fill="none" xmlns="http://www.w3.org/2000/svg">
  <path d="M17.9667.01001H6.01427C2.70262.01001 0 2.71263 0 6.02428V17.9957c0 3.2927 2.70262 5.9953 6.01427 5.9953H17.9857c3.3117 0 6.0143-2.7026 6.0143-6.0143V6.02428C23.981 2.71263 21.2784.01001 17.9667.01001Zm-.019 8.98334v.39969c0 3.99686-3.0833 8.60266-8.73596 8.60266-1.73196 0-3.34973-.4948-4.70103-1.3513.24742.0191.47581.0381.72323.0381 1.44647 0 2.75972-.4758 3.8065-1.2942-1.3513-.0191-2.47422-.8946-2.87391-2.0936.19033.0381.38065.0571.57098.0571.28549 0 .57098-.0381.8184-.1142-1.37034-.2855-2.41713-1.5036-2.41713-2.9691v-.038c.38065.2284.87549.3616 1.37034.3806-.8184-.5329-1.37034-1.46549-1.37034-2.51227 0-.55195.15226-1.06582.41871-1.5226C7.0801 8.40335 9.32593 9.6024 11.8763 9.73562c-.0571-.22839-.0761-.45678-.0761-.68517 0-1.67486 1.3703-3.02617 3.0642-3.02617.8755 0 1.6749.36162 2.2458.95163.7042-.13323 1.3513-.38065 1.9413-.74227-.2283.7042-.7232 1.29421-1.3513 1.67486.6281-.07613 1.2181-.22839 1.7701-.47581-.4188.60904-.9326 1.14195-1.5226 1.56066Z" fill="#fff"/>
</svg>
